<svg width="323" height="89" viewBox="0 0 323 89" fill="none" xmlns="http://www.w3.org/2000/svg">
<path d="M317.432 70.3489L297.934 43.5061L315.765 23.5698H311.706L296.122 41.014L283.654 23.5698H269.809L288.366 49.5582L269.809 70.3489H273.724L290.178 51.979L303.298 70.3489H317.432ZM311.488 67.3585H305.037L275.608 26.5602H281.987L311.488 67.3585Z" fill="#494949"/>
<path d="M322.09 86.7902L159.083 87.3753L189.064 0L201.56 0.17521L174.797 78.1191L322.09 78.2585V86.7902Z" fill="#55DFFF"/>
<path d="M218.436 40.1828V73.1351H209.543V40.1828H218.436ZM218.436 28.3019V36.2525H209.543V28.3019H218.436Z" fill="#54DFFF"/>
<path d="M254.045 42.057C256.242 43.8509 257.339 46.8135 257.339 50.9451V73.1351H248.354V53.0916C248.354 51.3583 248.117 50.0281 247.645 49.1009C246.784 47.4082 245.142 46.5615 242.722 46.5615C239.744 46.5615 237.705 47.8011 236.595 50.2801C236.022 51.5902 235.735 53.2628 235.735 55.2985V73.1351H226.993V40.2432H235.458V45.0499C236.586 43.3572 237.651 42.1378 238.656 41.392C240.462 40.0618 242.75 39.3968 245.521 39.3968C248.987 39.3968 251.83 40.2835 254.045 42.057Z" fill="#54DFFF"/>
<path d="M23.6425 73.1351H0V21.8897H25.3415C31.7357 21.9823 36.266 23.8019 38.9325 27.3481C40.537 29.5265 41.339 32.134 41.339 35.1703C41.339 38.2994 40.537 40.8141 38.9325 42.7145C38.0359 43.7807 36.7145 44.7543 34.9685 45.635C37.6347 46.5854 39.646 48.0918 41.0031 50.1547C42.3598 52.2174 43.038 54.7206 43.038 57.664C43.038 60.7002 42.2593 63.4238 40.7021 65.8342C39.711 67.4334 38.4724 68.7776 36.9858 69.8669C35.3105 71.1198 33.3345 71.9773 31.0575 72.4385C28.7805 72.9029 26.3087 73.1351 23.6425 73.1351ZM28.5621 63.331C30.8747 62.2184 32.0307 60.0861 32.0307 56.934C32.0307 54.2686 30.91 52.4375 28.6683 51.441C27.4177 50.8847 25.6598 50.5949 23.3948 50.5717H10.4054V64.2349H23.2177C25.5067 64.2349 27.2879 63.9337 28.5621 63.331ZM28.1019 31.5895C26.4739 31.0564 24.3976 30.7899 21.8729 30.7899H10.4054V42.0889H23.2177C25.5067 42.0889 27.3648 41.666 28.7921 40.8199C30.2198 39.9739 30.9336 38.4731 30.9336 36.3175C30.9336 33.9305 29.9897 32.3544 28.1019 31.5895Z" fill="#1185FE"/>
<path d="M61.6189 42.7495C60.6766 43.4216 60.2038 44.2094 60.2038 45.1134C60.2038 46.2492 60.6986 47.072 61.6913 47.5819C62.6809 48.115 66.1854 49.0304 72.2017 50.3284C76.2136 51.2556 79.2202 52.6579 81.2277 54.5351C83.21 56.4356 84.1996 58.8112 84.1996 61.6621C84.1996 65.4169 82.7783 68.4822 79.9356 70.8566C77.0929 73.2341 72.6965 74.4229 66.7527 74.4229C60.686 74.4229 56.2108 73.1629 53.3209 70.6492C50.4278 68.1346 48.9844 64.9302 48.9844 61.0364H59.2142C59.4254 62.7979 59.8855 64.0495 60.5946 64.7912C61.8426 66.1121 64.1559 66.7728 67.5312 66.7728C69.5135 66.7728 71.0861 66.483 72.2553 65.9038C73.4245 65.3243 74.0076 64.455 74.0076 63.2963C74.0076 62.1837 73.5348 61.3376 72.5925 60.7584C71.6471 60.1789 68.1425 59.1821 62.079 57.7683C57.7141 56.7021 54.6351 55.3694 52.8418 53.7702C51.0486 52.1942 50.1536 49.9229 50.1536 46.9562C50.1536 43.4562 51.5497 40.4491 54.3451 37.9344C57.1437 35.4195 61.0768 34.162 66.1508 34.162C70.9632 34.162 74.8868 35.1065 77.9186 36.9955C80.9504 38.8845 82.6901 42.1468 83.1376 46.7823H73.0527C72.9108 45.5075 72.5453 44.4992 71.9528 43.7578C70.8466 42.4133 68.9588 41.7412 66.2926 41.7412C64.096 41.7412 62.5391 42.0771 61.6189 42.7495Z" fill="#1185FE"/>
<path d="M101.473 49.6678L114.038 35.4136H126.531L113.046 49.9111L127.061 73.1351H114.886L105.649 56.934L101.473 61.2101V73.1351H91.5616V22.0634H101.473V49.6678Z" fill="#1185FE"/>
<path d="M141.573 77.0975C142.068 75.8469 142.27 75.0823 142.175 74.8036L128.019 35.2399H139.238L147.659 63.192L155.623 35.2399H166.348L153.111 72.5097C150.562 79.6948 148.545 84.1496 147.06 85.877C145.573 87.6044 142.601 88.4681 138.138 88.4681C137.243 88.4681 136.525 88.4619 135.979 88.4495C135.437 88.4371 134.624 88.3969 133.54 88.3288V80.4007L134.813 80.4719C135.803 80.5183 136.748 80.4812 137.643 80.3666C138.542 80.2521 139.295 79.9828 139.909 79.5679C140.499 79.1717 141.053 78.3513 141.573 77.0975Z" fill="#1185FE"/>
</svg>
