<svg xmlns="http://www.w3.org/2000/svg" width="1012" height="269" fill="none"><mask id="a" width="1012" height="269" x="0" y="0" maskUnits="userSpaceOnUse" style="mask-type:luminance"><path fill="#fff" d="M1011 0H0v269h1011V0Z"/></mask><g mask="url(#a)"><path fill="#2A7EFF" d="m75 111 29 7c12 3 22 7 28 12 10 8 15 19 15 34s-6 27-18 37a73 73 0 0 1-49 15c-21 0-38-5-50-14a49 49 0 0 1-19-41h33c1 7 3 13 6 17 6 7 15 10 29 10 8 0 15-1 20-3 10-3 14-9 14-19 0-5-2-10-7-13-5-2-12-5-22-7l-18-4c-17-4-29-8-36-13-11-8-16-19-16-36 0-15 5-27 16-37 11-9 27-14 47-14 18 0 33 4 45 14 12 9 19 22 19 40h-33c0-10-5-17-13-21-5-3-12-5-20-5-9 0-16 2-21 6-6 3-8 8-8 15 0 6 2 10 8 13l21 7Zm121 25 40-46h40l-43 47 44 75h-38l-29-52-14 13v39h-31V47h31v89Zm130 89 2-8-45-127h35l27 90 25-90h34l-42 120c-8 23-14 38-19 43-4 6-14 9-28 9a327 327 0 0 1-15-1v-26l4 1 9-1 8-2 5-8Z"/><path fill="#00CFFF" d="M451 114c-3 2-4 5-4 7 0 4 1 7 4 8l34 9c13 3 22 8 28 14 7 6 10 14 10 23 0 12-5 22-14 30-9 7-23 11-41 11-20 0-34-4-43-12s-14-19-14-31h33c0 6 2 10 4 12 4 4 11 6 22 6 6 0 11 0 15-2s6-5 6-9c0-3-2-6-5-8s-14-5-33-10c-14-3-24-7-30-13-5-5-8-12-8-22 0-11 4-21 13-29s22-12 38-12c15 0 27 3 37 9s15 17 17 32h-32c-1-4-2-8-4-10-3-4-9-6-18-6-7 0-12 1-15 3Zm161 8c-3-6-9-9-17-9s-15 3-19 9c-4 5-7 13-7 24v66h-31V47h31v59a39 39 0 0 1 36-20c7 0 14 2 20 4a36 36 0 0 1 22 26l1 24v72h-33v-74c0-7-1-12-3-16Zm70 25c7-4 16-7 28-8l11-1 13-3c4-2 7-5 7-9 0-5-2-9-5-11-4-2-9-3-16-3s-13 2-16 6c-2 3-4 7-4 11h-31c0-10 3-19 9-26 8-11 23-16 43-16 14 0 26 2 36 8 10 5 16 15 16 30v56a539 539 0 0 0 2 23l5 3v5h-35l-2-7-1-7-16 12c-6 4-14 6-23 6-11 0-20-3-27-10-8-6-11-15-11-27 0-15 6-26 17-32Zm50 40c5-5 8-12 9-23v-12a35 35 0 0 1-15 6l-7 1-15 4c-5 3-7 8-7 14s1 9 5 12c3 2 6 4 11 4 6 0 13-2 19-6Zm130-68h-4c-13 0-22 4-26 13-2 4-4 12-4 21v59h-32V90h31v21c5-8 9-14 13-17a35 35 0 0 1 24-7h3v33l-5-1Zm69 97c-16 0-30-5-42-15-11-10-17-26-17-49 0-21 5-37 16-49 10-11 24-17 42-17 10 0 19 2 27 6s15 10 20 18c5 7 8 16 10 25l1 25h-84c0 12 4 21 11 25 5 4 10 5 16 5 7 0 12-2 16-6 3-2 5-4 6-8h33c-1 7-5 15-11 22a56 56 0 0 1-44 18Zm-1-103c-8 0-14 2-18 7-4 4-6 11-7 19h49c0-9-3-15-7-20-5-4-11-6-17-6Z"/></g></svg>