<svg width="649" height="234" viewBox="0 0 649 234" fill="none" xmlns="http://www.w3.org/2000/svg">
<path d="M636.003 0.367507L392.653 0.364659L125.94 0.36538C120.201 0.36538 114.679 2.58358 110.53 6.55045L4.20183 108.254C-0.775496 113.015 -0.772667 120.969 4.20466 125.73L110.531 227.432C114.682 231.4 120.201 233.616 125.941 233.617L392.653 233.617L636 233.617C636.544 233.614 637.008 233.377 637.536 233.307C638.097 233.233 638.646 233.124 639.185 232.973C640.213 232.686 641.14 232.299 642.035 231.769C642.428 231.538 642.8 231.286 643.165 231.009C644.055 230.336 644.808 229.583 645.485 228.689C645.762 228.325 646.015 227.95 646.245 227.559C646.775 226.664 647.162 225.737 647.449 224.709C647.597 224.173 647.709 223.626 647.78 223.063C647.852 222.538 648.092 222.072 648.092 221.524L648.092 116.994V12.4583C648.09 5.78112 642.676 0.367507 636.003 0.367507ZM99.3355 124.026C93.7642 98.888 115.665 76.9868 140.804 82.558C153.472 85.3646 163.694 95.5865 166.5 108.254C172.073 133.395 150.172 155.296 125.032 149.723C112.365 146.916 102.143 136.693 99.3355 124.026Z" fill="#374149"/>
</svg>
