<?xml version="1.0" encoding="utf-8"?>
<svg xmlns="http://www.w3.org/2000/svg" version="1.0" width="1280.000000pt" height="717.000000pt" viewBox="0 0 1280.000000 717.000000" preserveAspectRatio="xMidYMid meet">
<g transform="translate(0.000000,717.000000) scale(0.100000,-0.100000)" fill="#fff" stroke="none">
 <path d="M6660 6784 c-19 -2 -82 -9 -140 -15 -523 -56 -1058 -274 -1490 -610 -121 -94 -319 -286 -427 -414 -206 -244 -392 -573 -487 -862 -15 -46 -32 -83 -37 -83 -5 0 -31 11 -57 24 -312 156 -733 116 -1022 -99 -70 -52 -183 -172 -234 -250 -98 -148 -151 -302 -163 -472 -3 -51 -9 -93 -12 -93 -3 0 -67 9 -141 20 -717 106 -1450 -97 -1915 -532 -324 -302 -479 -702 -424 -1094 42 -301 221 -611 482 -830 424 -357 994 -534 1623 -503 326 16 632 91 910 224 l111 52 33 -81 c182 -454 580 -785 1070 -892 130 -29 470 -27 596 3 279 68 504 188 696 372 l98 94 81 -37 c466 -213 1035 -232 1512 -50 119 46 303 142 389 205 37 27 71 49 74 49 4 0 43 -35 88 -78 374 -357 917 -583 1471 -610 545 -27 1034 103 1470 393 132 87 305 235 396 336 55 62 183 225 207 264 5 8 36 10 97 6 225 -14 436 26 628 120 477 234 733 745 630 1259 -21 105 -48 180 -104 290 -171 334 -500 567 -884 627 -125 19 -325 12 -438 -16 l-78 -19 -97 100 c-343 354 -817 595 -1314 668 l-87 13 -6 46 c-43 341 -117 595 -260 886 -139 284 -307 519 -529 740 -456 454 -1040 739 -1697 830 -107 15 -539 28 -619 19z"/>
</g>
</svg>
