<?xml version="1.0" encoding="utf-8"?>
<svg xmlns="http://www.w3.org/2000/svg" xmlns:xlink="http://www.w3.org/1999/xlink" version="1.1" x="0px" y="0px" width="512px" height="512px" viewBox="0 0 512 512" style="width: 256px; height: 256px; opacity: 1;" xml:space="preserve">
<style type="text/css">
.st0{fill:#4B4B4B;}
</style>
 <path class="st0" d="M443.259,100.336c-4.484-23.422-15.969-45.953-34.047-64.047C397.18,24.258,383.133,15.133,368.18,9.086 c-22.438-9.078-46.859-11.344-70.297-6.844c-23.438,4.531-45.938,15.984-64.031,34.047l-94.156,94.172 c-12.031,12.047-21.188,26.109-27.234,41.016c-9.094,22.453-11.375,46.906-6.828,70.297c1,5.031,2.297,10.016,3.875,14.844 l56.531-56.484c2.922-9.984,8.203-19.281,16.125-27.234l94.109-94.141c6.344-6.281,13.484-10.938,21.156-14.016 c11.5-4.688,24.25-5.891,36.344-3.547c12.094,2.359,23.547,8.156,32.969,17.563c6.313,6.313,10.938,13.484,14.078,21.172 c4.641,11.484,5.844,24.203,3.469,36.313c-2.344,12.125-8.125,23.563-17.547,32.984l-94.109,94.172 c-6.344,6.234-13.484,10.891-21.156,14.016c-2.016,0.828-4,1.453-6.047,2.094l-56.547,56.547 c20.125,6.531,41.516,7.828,62.172,3.828c23.391-4.516,45.938-15.969,63.984-34.078l94.172-94.109 c12.031-12.063,21.188-26.109,27.235-41.063C445.556,148.195,447.821,123.773,443.259,100.336z" style="fill: rgb(75, 75, 75);"/>
 <path class="st0" d="M402.493,255.336l-56.531,56.547c-2.922,9.922-8.219,19.266-16.125,27.188l-94.156,94.125 c-6.281,6.328-13.438,10.953-21.141,14.078c-11.516,4.625-24.203,5.813-36.313,3.5c-12.125-2.375-23.531-8.156-32.984-17.578 c-6.281-6.281-10.938-13.438-14.047-21.125c-4.688-11.531-5.844-24.234-3.531-36.344c2.406-12.141,8.156-23.516,17.578-32.969 l94.125-94.141c6.344-6.297,13.469-10.922,21.156-14.078c1.953-0.781,4.016-1.422,6.047-2.047l56.547-56.547 c-20.141-6.578-41.531-7.844-62.172-3.859c-23.406,4.531-45.953,15.922-64,34.078l-94.141,94.125 c-12.094,12.031-21.203,26.078-27.25,41.078c-9.125,22.391-11.359,46.875-6.828,70.281s15.938,45.922,34.078,64.016 c12.016,12.063,26.047,21.203,41.016,27.266c22.438,9.063,46.859,11.328,70.297,6.828c23.422-4.578,45.953-15.984,64.031-34.094 l94.156-94.109c12.016-12.063,21.172-26.125,27.219-41.078c9.078-22.422,11.344-46.875,6.813-70.313 C405.383,265.18,404.071,260.227,402.493,255.336z" style="fill: rgb(75, 75, 75);"/>
</svg>
