<?xml version="1.0" encoding="UTF-8" standalone="no"?>
<svg height="100%" stroke-miterlimit="10" style="fill-rule:nonzero;clip-rule:evenodd;stroke-linecap:round;stroke-linejoin:round;" version="1.1" viewBox="0 0 24 32" width="100%" xml:space="preserve" xmlns="http://www.w3.org/2000/svg" xmlns:xlink="http://www.w3.org/1999/xlink">
<defs/>
<path d="M3.67969 26.4492L17.1211 26.4492C18.3477 26.4492 19.2676 26.1465 19.8809 25.541C20.4941 24.9355 20.8008 24.0273 20.8008 22.8164L20.8008 11.1328C20.8008 9.92187 20.4941 9.01367 19.8809 8.4082C19.2676 7.80273 18.3477 7.5 17.1211 7.5L13.8516 7.5L13.8516 9.38672L17.0859 9.38672C17.6641 9.38672 18.1133 9.54102 18.4336 9.84961C18.7539 10.1582 18.9141 10.6172 18.9141 11.2266L18.9141 22.7227C18.9141 23.332 18.7539 23.791 18.4336 24.0996C18.1133 24.4082 17.6641 24.5625 17.0859 24.5625L3.70312 24.5625C3.11719 24.5625 2.66797 24.4082 2.35547 24.0996C2.04297 23.791 1.88672 23.332 1.88672 22.7227L1.88672 11.2266C1.88672 10.6172 2.04297 10.1582 2.35547 9.84961C2.66797 9.54102 3.11719 9.38672 3.70312 9.38672L6.94922 9.38672L6.94922 7.5L3.67969 7.5C2.45312 7.5 1.5332 7.80273 0.919922 8.4082C0.306641 9.01367 0 9.92187 0 11.1328L0 22.8164C0 24.0273 0.306641 24.9355 0.919922 25.541C1.5332 26.1465 2.45312 26.4492 3.67969 26.4492Z" fill="#3395ff" fill-rule="nonzero" opacity="1" stroke="none"/>
<path d="M10.4062 17.2734C10.6563 17.2734 10.873 17.1836 11.0566 17.0039C11.2402 16.8242 11.332 16.6094 11.332 16.3594L11.332 4.32422L11.2617 2.56641L12.0469 3.39844L13.8281 5.29688C13.9922 5.48438 14.2031 5.57812 14.4609 5.57812C14.7031 5.57812 14.9062 5.5 15.0703 5.34375C15.2344 5.1875 15.3164 4.98828 15.3164 4.74609C15.3164 4.62109 15.293 4.50977 15.2461 4.41211C15.1992 4.31445 15.1289 4.22266 15.0352 4.13672L11.0742 0.316406C10.957 0.199219 10.8457 0.117188 10.7402 0.0703125C10.6348 0.0234375 10.5234 0 10.4062 0C10.2812 0 10.166 0.0234375 10.0605 0.0703125C9.95508 0.117188 9.84375 0.199219 9.72656 0.316406L5.76562 4.13672C5.67187 4.22266 5.60156 4.31445 5.55469 4.41211C5.50781 4.50977 5.48438 4.62109 5.48438 4.74609C5.48438 4.98828 5.56445 5.1875 5.72461 5.34375C5.88477 5.5 6.08594 5.57812 6.32812 5.57812C6.59375 5.57812 6.80859 5.48438 6.97266 5.29688L8.75391 3.39844L9.53906 2.56641L9.46875 4.32422L9.46875 16.3594C9.46875 16.6094 9.56055 16.8242 9.74414 17.0039C9.92773 17.1836 10.1484 17.2734 10.4062 17.2734Z" fill="#3395ff" fill-rule="nonzero" opacity="1" stroke="none"/>
</svg>
